<?xml version="1.0" standalone="no"?>
<!DOCTYPE svg PUBLIC "-//W3C//DTD SVG 20010904//EN"
 "http://www.w3.org/TR/2001/REC-SVG-20010904/DTD/svg10.dtd">
<svg version="1.0" xmlns="http://www.w3.org/2000/svg"
 width="649.000000pt" height="649.000000pt" viewBox="0 0 649.000000 649.000000"
 preserveAspectRatio="xMidYMid meet">

<g transform="translate(0.000000,649.000000) scale(0.100000,-0.100000)"
fill="#000000" stroke="none">
<path d="M3804 4689 l-291 -291 -139 -28 -139 -28 -330 170 c-181 94 -371 192
-422 219 -50 27 -93 49 -96 49 -3 0 6 -35 20 -77 14 -43 60 -192 104 -332 43
-140 80 -256 82 -258 3 -2 18 12 36 32 21 24 30 43 26 58 -11 55 -35 230 -32
234 5 4 197 -156 197 -164 0 -3 -54 -66 -120 -141 -66 -74 -118 -137 -116
-140 3 -2 53 21 112 52 60 31 111 56 115 56 4 0 10 -20 14 -45 6 -41 9 -45 28
-40 32 10 306 104 350 121 52 20 72 18 94 -10 10 -13 65 -77 123 -142 58 -65
184 -208 280 -319 96 -111 217 -249 268 -307 50 -59 92 -111 92 -117 0 -7 -50
-11 -139 -13 l-139 -3 89 -105 c48 -58 88 -109 89 -114 0 -5 -77 -6 -188 -2
l-187 6 -64 -117 c-191 -352 -394 -713 -402 -713 -6 0 -265 220 -347 295 -7 6
-23 74 -35 150 l-23 140 -45 -4 c-24 -1 -45 -4 -46 -4 -1 -1 -4 -79 -8 -173
l-8 -172 154 -173 c224 -254 499 -559 504 -559 2 0 203 222 446 492 244 271
535 593 647 716 123 134 202 228 199 236 -3 8 -52 67 -109 132 -57 64 -103
120 -103 123 0 3 48 8 106 11 l106 5 -163 179 c-90 98 -164 182 -164 186 0 4
23 5 50 2 l50 -5 0 319 0 319 -79 200 c-91 233 -152 385 -155 385 0 0 -132
-131 -292 -291z m274 -147 l45 -132 -32 -112 c-60 -214 -88 -302 -97 -305 -5
-2 -71 59 -146 134 l-137 138 100 135 c56 74 124 168 152 208 28 40 55 71 61
69 5 -2 30 -62 54 -135z"/>
<path d="M3020 3959 c-63 -4 -236 -15 -385 -24 -148 -9 -326 -20 -393 -24 -89
-6 -126 -12 -132 -22 -15 -23 -23 -118 -17 -193 7 -75 23 -130 59 -203 12 -23
20 -44 17 -46 -2 -2 -53 -45 -112 -96 -73 -63 -105 -97 -99 -105 5 -6 78 -101
162 -211 84 -110 159 -205 167 -211 8 -7 22 -10 31 -8 9 2 103 10 207 19 567
44 665 53 665 59 0 1 -12 27 -26 56 -14 30 -30 65 -35 77 -11 30 -19 30 -314
-8 -132 -16 -274 -34 -315 -39 -41 -5 -97 -12 -125 -15 l-50 -7 -52 71 c-29
39 -53 73 -53 76 0 4 36 47 79 98 l79 91 -64 83 c-35 46 -64 85 -64 87 0 3 65
39 144 82 l145 77 -6 82 c-3 46 -2 85 3 88 5 3 36 7 69 8 55 3 59 1 66 -22 79
-265 138 -343 281 -369 101 -19 246 24 301 90 45 53 57 116 57 302 l0 168 -87
-1 c-49 -1 -140 -5 -203 -10z"/>
</g>
</svg>
