<svg id="svg" version="1.1" viewBox="0 0 300 300" width="300" height="300" xmlns="http://www.w3.org/2000/svg"><svg xmlns="http://www.w3.org/2000/svg"><defs><clipPath id="clip-1"><rect x="0" y="0" transform="scale(0.14648,0.14648)" width="2048" height="2048" fill="none"/></clipPath></defs><g clip-path="url(#clip-1)" fill="none" fill-rule="nonzero" stroke="none" stroke-width="1" stroke-linecap="butt" stroke-linejoin="miter" stroke-miterlimit="10" stroke-dasharray="" stroke-dashoffset="0" font-family="none" font-weight="none" font-size="none" text-anchor="none" style="mix-blend-mode: normal"><path d="M0,0h300v300h-300z" fill="#ffffff"/><path d="M189.31201,69.53306c0.43799,0.33853 3.65332,8.58853 4.07227,9.63208c1.68311,4.16572 3.33398,8.34419 4.95264,12.53496c0.51855,1.33579 2.07715,4.86592 2.146,6.01685c0.14648,2.45991 0.05273,5.59717 0.0542,8.11113l0.00146,20.75273c-1.86035,-0.24976 -3.44092,-0.42642 -5.31299,-0.52559c1.1748,1.05542 2.93555,3.10518 4.05469,4.33447l7.38867,8.07158c1.47217,1.60371 3.23584,3.64189 4.79443,5.06162c-3.51416,0.12349 -7.27441,0.09565 -10.82959,0.17051c3.52441,3.49263 7.29053,8.43794 10.83984,12.18501c-2.08594,1.93652 -5.3877,5.73926 -7.37256,7.90723l-14.11084,15.57422l-39.02344,43.40186c-3.23584,-3.16846 -7.74067,-8.47998 -10.83589,-11.95312l-19.89141,-22.40039c0.31582,-5.32178 0.57979,-10.64648 0.79204,-15.97266c1.49282,-0.28271 3.23994,-0.3208 4.76646,-0.35889c0.3019,4.14551 1.33096,8.56348 1.86328,12.79395c5.10791,4.83838 11.35093,9.95654 16.71343,14.65869c1.24116,-2.63965 3.16729,-5.93848 4.60723,-8.54297l8.29395,-14.96924c1.74316,-3.40869 3.76172,-6.80859 5.55908,-10.19824c0.81445,-1.53662 1.93652,-3.35889 2.58252,-4.91748c1.66992,-0.05127 3.99902,0.06006 5.7085,0.08496c4.0459,0.06885 8.0918,0.11426 12.13916,0.13916c-2.79199,-2.94434 -6.271,-7.29932 -8.93408,-10.45312c3.38232,-0.46436 9.77344,-0.07617 13.70068,-0.35449c-1.07373,-1.03125 -2.90625,-3.26514 -3.96973,-4.48901l-7.5791,-8.74424c-8.3291,-9.61318 -16.9834,-19.72983 -25.56445,-29.09341c-6.60117,2.146 -13.74844,5.08579 -20.32939,6.97808c-0.09331,-1.5498 -0.2272,-3.09697 -0.40137,-4.63975c-2.45845,1.45342 -9.65317,5.2103 -12.01245,5.87959c2.7186,-2.92939 5.32207,-6.1292 8.04287,-9.07397c1.41709,-1.53369 2.79932,-3.24448 4.37754,-4.61719c-1.07124,-0.71309 -2.58032,-2.0543 -3.60132,-2.91475l-5.76489,-4.85625c0.82749,3.49878 1.18696,8.35474 1.9478,12.10752c-0.92109,1.04106 -2.4665,2.89556 -3.48208,3.72539c-0.70767,-2.96338 -2.35928,-7.74932 -3.28755,-10.75679c-2.14307,-7.08765 -4.37065,-14.14922 -6.68232,-21.18354c3.07515,1.26416 8.10513,4.08618 11.24561,5.67261c9.51533,4.80645 19.09717,10.1874 28.67754,14.83301c1.28027,-0.31392 11.70117,-2.09604 12.25049,-2.56567c4.25391,-3.63047 8.47559,-8.3042 12.5332,-12.25649c4.99951,-4.86694 9.8291,-9.98013 14.87988,-14.78994z" fill="#15629e"/><path d="M185.9209,83.4501c0.8877,1.0604 3.52881,10.88071 4.56445,12.52485c-1.75781,6.19321 -4.30811,13.87134 -5.68359,19.92363c-1.43262,-1.32188 -2.88721,-2.79976 -4.2832,-4.1748c-3,-2.92529 -5.95898,-5.89204 -8.87695,-8.89937c1.2085,-1.33652 2.42139,-2.95283 3.47314,-4.41973c3.56689,-4.97842 7.38574,-9.87686 10.80615,-14.95459z" fill="#ffffff"/><path d="M151.11475,116.22568c0.48633,-0.04644 1.35791,-0.04277 1.87646,-0.05815c0.4043,6.0501 1.44141,16.29683 -1.9541,21.52456c-2.00977,2.97656 -5.35679,4.03022 -8.65679,4.6916c-12.53306,2.51147 -17.25029,-7.48711 -19.22124,-18.16816l-5.99063,0.38628c0.01846,2.65151 0.1418,5.30127 0.36987,7.94297c-4.49722,2.43999 -9.0104,4.85024 -13.53955,7.23062c2.15332,2.32881 4.00444,5.57856 6.25444,7.97607c-2.63628,2.83447 -5.07949,5.83594 -7.72075,8.68652c0.8313,0.94482 4.36436,5.69092 4.9749,6.75586c3.8001,-0.76611 8.90186,-1.12793 12.81387,-1.6084c7.63125,-0.93457 15.88169,-2.23242 23.49082,-2.86377l0.37075,-0.01172c0.28813,0.27979 3.14531,6.84668 3.60674,7.7915c-1.21582,0.14209 -2.53843,0.24463 -3.76523,0.32813c-12.72759,0.86572 -25.59243,2.4917 -38.31108,3.16992c-2.63437,-3.7251 -6.1585,-7.93066 -8.94214,-11.61035c-1.76265,-2.33057 -5.17661,-7.00635 -7.04224,-8.9502c1.08867,-0.78955 2.7085,-2.26758 3.78354,-3.19585l6.80728,-5.87124c-3.8814,-5.9606 -4.99204,-14.03394 -2.87446,-20.8251c0.72656,-0.11689 1.49385,-0.14854 2.22803,-0.20771c5.65327,-0.45557 11.31284,-0.65024 16.97256,-0.96504z" fill="#15629e"/></g></svg></svg>